<svg xmlns="http://www.w3.org/2000/svg" style="display: none;"><symbol id="medical-insurance" viewBox="0 0 512 512"><title>medical-insurance</title><path d="m193.645 203.5v30h-30c-7.444 0-13.5 6.056-13.5 13.5v18c0 7.444 6.056 13.5 13.5 13.5h30v30c0 7.444 6.056 13.5 13.5 13.5h18c7.444 0 13.5-6.056 13.5-13.5v-30h30c7.444 0 13.5-6.056 13.5-13.5v-18c0-7.444-6.056-13.5-13.5-13.5h-30v-30c0-7.444-6.056-13.5-13.5-13.5h-18c-7.444 0-13.5 6.056-13.5 13.5zm15 1.5h15v33c0 5.79 4.71 10.5 10.5 10.5h33v15h-33c-5.79 0-10.5 4.71-10.5 10.5v33h-15v-33c0-5.79-4.71-10.5-10.5-10.5h-33v-15h33c5.79 0 10.5-4.71 10.5-10.5zm167.5-205c-37.854 0-70.656 22.025-86.277 53.931-4.379-2.116-8.7-4.389-12.896-6.826-19.055-11.07-36.05-25.312-50.509-42.327-2.576-3.037-6.337-4.778-10.318-4.778s-7.742 1.741-10.315 4.773c-14.463 17.019-31.458 31.261-50.513 42.331-38.382 22.299-76.536 26.718-101.805 26.436-3.648-.03-7.066 1.358-9.649 3.919-2.584 2.562-4.008 5.979-4.008 9.621v128.749c0 4.143 3.358 7.5 7.5 7.5s7.5-3.357 7.5-7.5v-127.28c27.087.101 67.417-4.899 107.998-28.474 20.043-11.645 37.964-26.539 53.292-44.287 15.326 17.747 33.247 32.641 53.293 44.287 4.842 2.812 9.835 5.432 14.899 7.846-2.49 8.127-3.933 16.708-4.161 25.586-8.007-3.512-15.814-7.462-23.305-11.822-11.517-6.689-22.523-14.42-32.705-22.971-4.647-3.914-11.395-3.915-16.035-.007-10.191 8.558-21.198 16.288-32.716 22.979-25.952 15.083-54.5 24.951-84.865 29.334-6.098.891-10.696 6.208-10.696 12.37v181.69c0 57.639 28.953 110.706 77.449 141.956 15.791 10.169 34.018 17.808 55.72 23.35 2.04.521 4.197.522 6.236.001 21.708-5.543 39.935-13.182 55.727-23.352 48.495-31.249 77.448-84.316 77.448-141.955v-116.045c7.586 1.934 15.53 2.965 23.71 2.965.431 0 .86-.014 1.29-.02v113.1c0 32.676-8.337 65.041-24.109 93.595-15.494 28.051-37.902 52.042-64.802 69.38-20.282 13.062-43.973 22.48-72.379 28.769-28.406-6.288-52.097-15.706-72.376-28.767-26.902-17.34-49.311-41.331-64.805-69.382-15.772-28.554-24.109-60.919-24.109-93.595v-54.251c0-4.143-3.358-7.5-7.5-7.5s-7.5 3.357-7.5 7.5v54.251c0 35.206 8.983 70.078 25.979 100.848 16.689 30.214 40.828 56.058 69.811 74.738 22.2 14.298 48.014 24.491 78.918 31.165 1.043.225 2.123.225 3.166 0 30.904-6.674 56.718-16.867 78.92-31.167 28.98-18.679 53.119-44.522 69.808-74.736 16.995-30.77 25.979-65.642 25.979-100.848v-114.487c25.189-4.354 47.901-18.671 62.735-40.137 2.355-3.407 1.501-8.079-1.906-10.434-3.409-2.355-8.079-1.501-10.434 1.906-15.177 21.961-40.105 35.072-66.685 35.072-44.664 0-81-36.337-81-81s36.336-81 81-81 81 36.337 81 81c0 5.502-.557 11.001-1.656 16.345-.834 4.057 1.778 8.022 5.835 8.857 4.062.833 8.023-1.778 8.857-5.836 1.303-6.335 1.964-12.851 1.964-19.366 0-52.935-43.065-96-96-96zm-38.71 183.84v121.24c0 52.518-26.382 100.871-70.571 129.345-14.268 9.189-30.861 16.151-50.719 21.275-19.854-5.123-36.45-12.086-50.717-21.274-44.19-28.475-70.573-76.828-70.573-129.346v-179.536c31.463-4.806 61.091-15.193 88.097-30.889 11.644-6.764 22.799-14.527 33.193-23.103 10.389 8.571 21.546 16.337 33.188 23.1 10.162 5.913 20.863 11.135 31.866 15.561 4.918 32.993 26.683 60.553 56.236 73.627zm-217.29 72.16c0 52.935 43.065 96 96 96s96-43.065 96-96-43.065-96-96-96-96 43.065-96 96zm177 0c0 44.663-36.336 81-81 81s-81-36.337-81-81 36.336-81 81-81 81 36.337 81 81zm129.391-200.802c-8.893-8.092-22.659-7.633-31.338 1.045l-34.165 34.165-4.24-4.24c-8.643-8.731-23.16-8.661-31.821-.001-8.772 8.772-8.773 23.046 0 31.819l16.617 16.619c5.188 5.186 12.092 8.041 19.443 8.041 7.352 0 14.257-2.856 19.445-8.044l46.839-46.84c9.006-8.93 8.517-24.104-.78-32.564zm-9.825 21.957-46.839 46.84c-2.355 2.354-5.494 3.651-8.839 3.651s-6.484-1.296-8.837-3.648l-16.616-16.617c-2.924-2.925-2.924-7.683 0-10.606 2.888-2.887 7.734-2.902 10.607-.001l7.421 7.422c1.983 1.984 4.62 3.077 7.425 3.077s5.441-1.092 7.425-3.075l37.347-37.347c2.955-2.957 7.728-3.206 10.637-.559 3.119 2.838 3.277 7.891.269 10.863z"/></symbol><symbol id="bookmark" viewBox="0 0 333.086 333.087"><title>bookmark</title><path d="M284.662,333.087c-3.614,0-7.136-1.57-9.559-4.441l-108.56-128.714L57.983,328.646c-3.384,4.014-8.916,5.481-13.845,3.683 c-4.93-1.802-8.21-6.492-8.21-11.741V12.5c0-6.903,5.597-12.5,12.5-12.5h236.23c6.902,0,12.5,5.597,12.5,12.5v308.086 c0,5.249-3.28,9.939-8.21,11.741C287.546,332.839,286.096,333.087,284.662,333.087z M166.543,168.043 c3.684,0,7.18,1.625,9.555,4.441l96.061,113.893V25H60.928v261.377l96.06-113.893 C159.363,169.668,162.859,168.043,166.543,168.043z"/></symbol><symbol id="tooth" viewBox="0 0 64 64"><title>tooth</title><path d="M8.109,33.455c2.856,5.6,5.022,10.675,6.762,14.756C18.538,56.81,20.751,62,25,62c4.507,0,5-3.523,5-11,0-9.248.906-10,2-10s2,.752,2,10c0,7.477.493,11,5,11,4.249,0,6.462-5.19,10.129-13.789,1.74-4.081,3.906-9.159,6.762-14.756l.335-.656C58,29.352,60,25.444,60,21,60,10.346,52.972,2,44,2a16.564,16.564,0,0,0-9.607,3.206,4.41,4.41,0,0,1-4.786,0A16.564,16.564,0,0,0,20,2C11.028,2,4,10.346,4,21c0,4.444,2.005,8.352,3.774,11.8ZM20,4a14.474,14.474,0,0,1,8.393,2.794l0,0h0a17.317,17.317,0,0,0,9.967,2.857A23.116,23.116,0,0,0,45.7,8.41l-.633-1.9a19.675,19.675,0,0,1-10.28.783,4.853,4.853,0,0,0,.819-.5A14.474,14.474,0,0,1,44,4c7.851,0,14,7.467,14,17,0,3.961-1.888,7.64-3.553,10.886l-.338.659c-2.887,5.66-5.067,10.773-6.819,14.881C44.061,55,41.928,60,39,60c-2.177,0-3-.776-3-9,0-8.462-.556-12-4-12s-4,3.538-4,12c0,8.224-.823,9-3,9-2.928,0-5.061-5-8.29-12.574-1.752-4.108-3.932-9.221-6.819-14.881l-.338-.659C7.888,28.64,6,24.961,6,21,6,11.467,12.149,4,20,4Z"/><path d="M21,8l0-2C16.873,6,8.846,9.12,8,20.929l2,.142C10.916,8.212,20.592,8,21,8Z"/><rect x="8" y="23" width="2" height="2"/><path d="M56,21l-2,0c0,.047-.095,4.816-4.814,11.423l1.628,1.162C55.941,26.4,56,21.217,56,21Z"/></symbol><symbol id="surgery" viewBox="0 0 512.001 512.001"><title>surgery</title><circle cx="42.858" cy="74.602" r="7.394"/><path d="M215.069,371.456v-20.623c0-4.143-3.357-7.5-7.5-7.5s-7.5,3.357-7.5,7.5v20.623c0,4.143,3.357,7.5,7.5,7.5 C211.711,378.956,215.069,375.598,215.069,371.456z"/><circle cx="469.142" cy="74.602" r="7.394"/><path d="M472.521,41.239l-19.62-31.562c-2.89-4.648-7.414-7.892-12.742-9.136c-5.326-1.24-10.822-0.336-15.469,2.552 c-4.647,2.89-7.891,7.414-9.134,12.742c-1.244,5.329-0.338,10.822,2.552,15.469l19.616,31.555 c-1.39,3.724-2.121,7.704-2.114,11.798c0.001,0.539,0.017,1.075,0.044,1.607l-55.368,47.279 c-27.809-8.745-57.995-2.949-80.617,15.444c-9.388-2.911-19.541,2.026-22.937,11.362c-1.696,4.66-1.477,9.702,0.619,14.197 c2.096,4.494,5.817,7.904,10.477,9.601l138.047,50.245c2.072,0.754,4.221,1.13,6.362,1.13c2.674,0,5.34-0.586,7.836-1.75 c4.494-2.096,7.903-5.817,9.6-10.477c1.696-4.66,1.477-9.702-0.619-14.197c-1.969-4.22-5.382-7.465-9.648-9.252 c-3.213-16.701-11.152-31.773-22.557-43.654l45.406-38.773c2.224,0.466,4.528,0.715,6.888,0.715h0.056 c18.489-0.031,33.507-15.099,33.477-33.588C502.646,57.216,489.408,42.937,472.521,41.239z M430.847,23.385 c-0.773-1.243-1.016-2.714-0.683-4.14c0.333-1.427,1.201-2.638,2.447-3.412c1.244-0.773,2.713-1.015,4.139-0.684 c1.426,0.333,2.638,1.202,3.412,2.447l16.164,26.002c-3.371,1.393-6.507,3.35-9.302,5.811L430.847,23.385z M422.302,183.573 l-3.156-1.149c-3.898-1.414-8.197,0.591-9.613,4.482c-1.417,3.893,0.59,8.196,4.482,9.613l16.062,5.846 c0.005,0.002,0.01,0.004,0.015,0.006l3.354,1.221c1.209,0.44,1.78,1.345,2.014,1.845c0.233,0.5,0.559,1.519,0.118,2.728 c-0.439,1.207-1.344,1.779-1.844,2.012c-0.501,0.233-1.522,0.557-2.728,0.119l-138.047-50.245 c-1.209-0.44-1.78-1.344-2.014-1.845c-0.232-0.5-0.559-1.519-0.118-2.728c0.439-1.208,1.344-1.779,1.844-2.013 c0.5-0.234,1.52-0.559,2.728-0.119l3.303,1.202c0.024,0.008,0.047,0.017,0.071,0.026l82.366,29.98 c3.892,1.413,8.196-0.592,9.613-4.482c1.417-3.893-0.59-8.196-4.482-9.613l-69.466-25.285c18.453-11.363,41.217-13.879,62.03-6.3 C399.648,146.449,415.471,163.008,422.302,183.573z M405.432,136.217c-3.079-2.245-6.321-4.294-9.71-6.133l44.71-38.177 c1.909,3.155,4.325,5.968,7.131,8.334L405.432,136.217z M469.172,93.135h-0.03c-10.204-0.001-18.516-8.294-18.532-18.503 c-0.017-10.219,8.283-18.546,18.502-18.563h0.03c10.204,0,18.516,8.294,18.532,18.503 C487.691,84.79,479.391,93.117,469.172,93.135z"/><path d="M98.275,111.924c-7.382,10.146-12.575,21.926-15.024,34.655c-9.064,3.804-13.664,14.113-10.268,23.448 c1.697,4.66,5.107,8.381,9.601,10.477c2.496,1.164,5.161,1.75,7.836,1.75c2.142,0,4.289-0.376,6.361-1.13l138.048-50.245 c4.66-1.697,8.381-5.106,10.477-9.601c2.097-4.495,2.316-9.537,0.62-14.197c-1.697-4.66-5.106-8.381-9.601-10.477 c-4.221-1.969-8.921-2.26-13.338-0.886c-23.382-19.01-54.848-24.565-83.412-14.511L74.543,62.429l19.35-31.125 c5.961-9.593,3.009-22.248-6.583-28.212C77.717-2.869,65.062,0.084,59.1,9.675L39.479,41.239 C22.594,42.937,9.354,57.217,9.326,74.547c-0.03,18.489,14.987,33.557,33.477,33.588h0.056c7.4-0.001,14.247-2.416,19.801-6.494 L98.275,111.924z M223.908,111.298c0.002-0.001,0.005-0.002,0.007-0.002l3.343-1.217c0.435-0.158,0.845-0.218,1.215-0.218 c0.659,0,1.191,0.188,1.512,0.337c0.5,0.233,1.405,0.805,1.845,2.013c0.439,1.208,0.114,2.227-0.119,2.727 c-0.233,0.5-0.805,1.405-2.013,1.845L91.65,167.026c-1.209,0.44-2.226,0.114-2.726-0.119c-0.5-0.232-1.405-0.805-1.845-2.012 c-0.673-1.849,0.284-3.899,2.132-4.572l3.346-1.218c0.01-0.004,0.02-0.007,0.029-0.011L223.908,111.298z M143.824,95.605 c20.814-7.575,43.579-5.062,62.03,6.301l-105.499,38.398c3.405-10.252,9.046-19.504,16.426-27.148 c0.005-0.005,0.009-0.01,0.014-0.015C124.218,105.461,133.392,99.402,143.824,95.605z M76.155,78.508l43.676,12.61 c-3.743,2.523-7.262,5.325-10.539,8.373L73.113,89.046C74.674,85.788,75.719,82.241,76.155,78.508z M71.838,17.596 c1.597-2.566,4.986-3.358,7.553-1.763c2.567,1.597,3.358,4.986,1.763,7.554L64.975,49.408c-2.795-2.461-5.931-4.417-9.302-5.811 L71.838,17.596z M42.858,93.135h-0.03c-10.219-0.018-18.519-8.345-18.502-18.563c0.017-10.209,8.327-18.503,18.532-18.503h0.03 c10.219,0.017,18.519,8.344,18.502,18.563C61.372,84.841,53.062,93.135,42.858,93.135z"/><path d="M412.458,355.252v-19.887c0-4.143-3.358-7.5-7.5-7.5c-4.143,0-7.5,3.357-7.5,7.5v19.887c0,4.143,3.357,7.5,7.5,7.5 C409.101,362.752,412.458,359.394,412.458,355.252z"/><path d="M125.815,299.463c-4.143,0-7.5,3.358-7.5,7.5v19.566c0,4.142,3.357,7.5,7.5,7.5s7.5-3.358,7.5-7.5v-19.566 C133.315,302.82,129.957,299.463,125.815,299.463z"/><path d="M431.673,296.938H199.227c-5.997,0-11.635-2.335-15.875-6.576l-74.476-74.477c-11.441-11.441-29.99-11.731-41.348-0.647 c-5.669,5.532-8.791,12.94-8.791,20.859v99.371c0,9.692,4.893,18.566,13.087,23.738l36.449,23.009 c3.502,2.213,8.135,1.163,10.346-2.338c2.211-3.503,1.164-8.135-2.338-10.346l-36.45-23.01c-3.815-2.408-6.094-6.54-6.094-11.054 v-99.371c0-3.843,1.516-7.438,4.268-10.124c5.508-5.375,14.6-5.146,20.264,0.52l74.476,74.477 c7.074,7.073,16.479,10.969,26.482,10.969h232.446c7.797,0,14.14,6.343,14.14,14.139v43.433 c0,14.668-11.934,26.602-26.602,26.602h-76.723v-45.277c0-4.143-3.358-7.5-7.5-7.5c-4.143,0-7.5,3.357-7.5,7.5v45.277H173.166 c-9.67,0-19.103-2.728-27.277-7.89c-3.502-2.213-8.134-1.165-10.346,2.338c-2.211,3.502-1.165,8.135,2.338,10.346 c10.575,6.677,22.776,10.206,35.285,10.206h32.393v10.554c0,10.485,8.53,19.016,19.016,19.016h6.626v27.51h-28.713 c-10.931,0-19.824,8.894-19.824,19.824v9.904c0,7.766,6.317,14.083,14.083,14.083h140.064c7.765,0,14.082-6.317,14.082-14.083 v-9.904c0-10.931-8.894-19.824-19.824-19.824h-28.712v-27.51h6.626c10.485,0,19.016-8.53,19.016-19.016v-10.554h91.213 c22.939,0,41.602-18.662,41.602-41.602v-43.433C460.812,310.01,447.741,296.938,431.673,296.938z M331.069,483.188 c2.66,0,4.824,2.164,4.824,4.824v8.987H197.664v-8.987c0-2.66,2.164-4.824,4.824-4.824H331.069z M246.201,468.188v-27.51h41.157 v27.51H246.201z M308.982,425.68h-84.408c-2.214,0-4.016-1.802-4.016-4.016V411.11h92.439v10.554h0.001 C312.998,423.878,311.196,425.68,308.982,425.68z"/></symbol><symbol id="health-report" viewBox="0 0 128 128"><title>health-report</title><path d="M98.5,16.514H83.469V1.747A1.75,1.75,0,0,0,81.719,0H46.281a1.749,1.749,0,0,0-1.75,1.75V16.514H29.5a9.761,9.761,0,0,0-9.75,9.75v91.982A9.761,9.761,0,0,0,29.5,128h69a9.761,9.761,0,0,0,9.75-9.75V26.264A9.761,9.761,0,0,0,98.5,16.514Zm-52.219,13.5H94.75V114.5H33.25V30.014ZM48.031,3.5H79.969V26.514H48.031V3.5ZM104.75,118.246a6.257,6.257,0,0,1-6.25,6.25h-69a6.257,6.257,0,0,1-6.25-6.25V26.264a6.257,6.257,0,0,1,6.25-6.25H44.531v6.5H31.5a1.749,1.749,0,0,0-1.75,1.75v87.982A1.749,1.749,0,0,0,31.5,118h65a1.749,1.749,0,0,0,1.75-1.75V28.264a1.749,1.749,0,0,0-1.75-1.75H83.469v-6.5H98.5a6.257,6.257,0,0,1,6.25,6.25Z"/><path d="M58.469,16.756H62.25v3.781a1.75,1.75,0,1,0,3.5,0V16.756h3.781a1.75,1.75,0,0,0,0-3.5H65.75V9.475a1.75,1.75,0,1,0-3.5,0v3.781H58.469a1.75,1.75,0,1,0,0,3.5Z"/><path d="M45.243,59.217a1.751,1.751,0,0,0,2.459-.2l9.751-11.36A1.75,1.75,0,1,0,54.8,45.382L46.178,55.423l-3.547-3a1.75,1.75,0,1,0-2.262,2.672Z"/><path d="M64,50.021H86.5a1.75,1.75,0,0,0,0-3.5H64a1.75,1.75,0,0,0,0,3.5Z"/><path d="M64,57.882H79.25a1.75,1.75,0,0,0,0-3.5H64a1.75,1.75,0,0,0,0,3.5Z"/><path d="M45.243,79.271a1.75,1.75,0,0,0,2.459-.2l9.751-11.359a1.75,1.75,0,0,0-2.656-2.28L46.178,75.477l-3.547-3a1.75,1.75,0,1,0-2.262,2.672Z"/><path d="M64,70.074H86.5a1.75,1.75,0,0,0,0-3.5H64a1.75,1.75,0,0,0,0,3.5Z"/><path d="M64,77.935H79.25a1.75,1.75,0,0,0,0-3.5H64a1.75,1.75,0,0,0,0,3.5Z"/><path d="M45.243,99.324a1.751,1.751,0,0,0,2.459-.2l9.751-11.359a1.75,1.75,0,1,0-2.656-2.28L46.178,95.53l-3.547-3A1.75,1.75,0,1,0,40.369,95.2Z"/><path d="M64,90.128H86.5a1.75,1.75,0,0,0,0-3.5H64a1.75,1.75,0,1,0,0,3.5Z"/><path d="M64,97.989H79.25a1.75,1.75,0,0,0,0-3.5H64a1.75,1.75,0,0,0,0,3.5Z"/></symbol><symbol id="microscope" viewBox="0 0 512 512"><title>microscope</title><path d="m87.85 246.825c-8.508 0-16.509 3.315-22.536 9.343-12.389 12.426-12.389 32.644.008 45.078 6.02 6.02 14.02 9.335 22.528 9.335 8.509 0 16.509-3.315 22.521-9.327 6.031-6.014 9.356-14.011 9.362-22.517.007-8.519-3.315-16.537-9.354-22.577-6.02-6.02-14.02-9.335-22.529-9.335zm11.922 43.815c-3.187 3.187-7.42 4.941-11.922 4.941-4.501 0-8.735-1.755-11.913-4.934-6.567-6.586-6.567-17.303-.008-23.881 3.186-3.186 7.42-4.941 11.921-4.941 4.502 0 8.735 1.755 11.922 4.941 3.203 3.204 4.966 7.451 4.962 11.96-.003 4.495-1.763 8.724-4.962 11.914z"/><path d="m240.279 409.26c-2.917-2.942-7.636-2.935-10.578-.017-2.941 2.916-2.934 7.693-.018 10.635 1.467 1.479 3.395 2.22 5.326 2.22 1.908 0 3.818-.724 5.28-2.174 2.941-2.916 2.962-7.665.046-10.606z"/><path d="m457.296 281.12h-76.821c-4.143 0-7.5 3.358-7.5 7.5s3.357 7.5 7.5 7.5h76.821c10.288 0 18.658 9.482 18.658 21.138v7.204h-216.29v-28.342h85.99c4.143 0 7.5-3.358 7.5-7.5s-3.357-7.5-7.5-7.5h-88.389c-6.948 0-12.601 5.857-12.601 13.057v32.228c0 7.2 5.652 13.057 12.601 13.057h79.755c-3.155 3.995-6.56 7.832-10.203 11.475-14.267 14.267-31.699 25.016-50.705 31.356-8.278-14.125-23.61-23.637-41.13-23.637-17.509 0-32.833 9.5-41.114 23.611-18.974-6.335-36.381-17.076-50.634-31.329-5.768-5.769-10.95-12.026-15.478-18.657 2.556-1.906 5.01-4.009 7.329-6.328 12.62-12.621 19.571-29.4 19.571-47.245 0-17.844-6.95-34.613-19.568-47.22-6.586-6.595-14.316-11.624-22.734-14.941 5.11-14.792 12.758-28.32 22.818-40.362l70.196 58.508c2.279 1.915 5.101 2.938 8.047 2.938.383 0 .768-.017 1.154-.052 1.998-.18 3.876-.827 5.525-1.857l10.261 8.567c3.963 3.299 8.78 4.908 13.569 4.908 6.075 0 12.104-2.59 16.28-7.606l1.184-1.42 14.467 12.065c4.596 3.832 10.214 5.711 15.931 5.711 7.062 0 14.273-2.871 19.879-8.477 4.604-4.605 6.971-10.874 6.664-17.654-.336-7.41-3.789-14.376-9.468-19.108l-14.482-12.096 1.179-1.414c3.62-4.327 5.333-9.823 4.823-15.477-.51-5.652-3.179-10.753-7.506-14.355l-10.295-8.598c.73-1.839 1.025-3.836.827-5.863-.326-3.347-1.937-6.357-4.472-8.424l-20.743-17.297-.001-.001-84.305-70.261c-6.75-5.646-15.321-8.319-24.149-7.53-7.426.666-14.243 3.723-19.592 8.702l-25.985-21.699.113-.135c8.249-9.851 6.935-24.586-2.941-32.858-4.776-3.984-10.835-5.866-17.054-5.304-6.219.564-11.837 3.506-15.82 8.281l-36.76 44.055c-3.981 4.774-5.867 10.828-5.308 17.045.56 6.218 3.493 11.831 8.258 15.801 4.356 3.634 9.661 5.407 14.939 5.407 6.679 0 13.315-2.841 17.926-8.345.003-.004.007-.008.01-.013l.119-.143 25.994 21.685c-7.45 11.649-6.783 26.683 1.305 37.573-19.007 22.579-32.254 49.465-38.603 78.337-5.712 3.065-11.005 6.985-15.717 11.697-12.623 12.608-19.575 29.38-19.575 47.226 0 17.845 6.951 34.624 19.575 47.248 9.163 9.152 20.346 15.072 32.123 17.787 8.559 16.447 19.613 31.499 32.897 44.785 22.701 22.702 50.843 38.96 81.692 47.267v19.689h-50.743c-4.143 0-7.5 3.358-7.5 7.5s3.357 7.5 7.5 7.5h280.215c.074 0 .193.119.193.193v26.13c0 .074-.119.194-.193.194h-363.647c-.074 0-.193-.12-.193-.194v-26.13c0-.074.119-.193.193-.193h48.612c4.143 0 7.5-3.358 7.5-7.5s-3.357-7.5-7.5-7.5h-48.612c-8.378 0-15.193 6.816-15.193 15.193v26.13c0 8.378 6.815 15.194 15.193 15.194h363.647c8.378 0 15.193-6.816 15.193-15.194v-26.13c0-8.377-6.815-15.193-15.193-15.193h-134.174v-19.659c30.897-8.311 59.059-24.58 81.748-47.297 14.43-14.431 26.206-30.921 35.062-49.066h78.942c6.933 0 12.572-5.857 12.572-13.057v-9.147c-.001-19.923-15.099-36.134-33.659-36.134zm-158.045-56.894c2.419 2.016 3.949 5.107 4.092 8.27.081 1.782-.25 4.333-2.286 6.369-4.026 4.025-10.673 5.955-15.596 1.851l-14.467-12.063 7.623-9.14 6.156-7.378zm-15.983-43.339c1.252 1.042 2.023 2.527 2.173 4.182.149 1.656-.344 3.256-1.396 4.513l-35.366 42.406c-2.145 2.574-6.141 2.928-8.721.779l-9.775-8.161 43.278-51.909zm-144.51-108.131c3.093-3.707 7.468-5.988 12.318-6.423.559-.05 1.114-.075 1.668-.075 4.229 0 8.269 1.453 11.527 4.179l103.203 86.018-54.344 65.182-103.204-86.019c-7.667-6.376-8.701-17.821-2.312-25.506zm-82.75-.038c-2.954 3.519-8.224 3.988-11.754 1.042-1.686-1.405-2.725-3.402-2.925-5.624-.2-2.229.47-4.394 1.887-6.092l36.759-44.055c1.419-1.701 3.428-2.749 5.657-2.951.261-.024.521-.036.779-.036 1.948 0 3.81.667 5.3 1.91 3.523 2.952 4 8.208 1.051 11.73zm21.241-2.051 17.304-20.752 25.775 21.524-17.291 20.741zm28.625 81.099 17.781 14.82c-11.331 13.621-20.125 29.324-25.806 46.064-3.277-.489-6.614-.739-9.988-.739-4.936 0-9.786.551-14.493 1.587 6.38-22.614 17.446-43.655 32.506-61.732zm-54.65 163.579c-9.788-9.788-15.179-22.8-15.179-36.639 0-13.837 5.39-26.84 15.179-36.617 9.787-9.788 22.799-15.179 36.637-15.179 13.836 0 26.839 5.39 36.612 15.175.002.002.004.004.007.007 9.785 9.773 15.175 22.776 15.175 36.613 0 13.839-5.391 26.851-15.179 36.639-20.185 20.185-53.046 20.183-73.252.001zm136.109 90.96v13.886c-26.782-7.913-51.207-22.392-71.085-42.271-9.846-9.847-18.353-20.747-25.398-32.517 8.177-.363 16.292-2.23 23.912-5.572 5.196 7.736 11.176 15.022 17.863 21.711 15.72 15.72 34.884 27.612 55.784 34.713-.699 3.242-1.076 6.602-1.076 10.05zm80.298 49.178h-65.298v-49.177c0-18.003 14.646-32.65 32.648-32.65 18.003 0 32.649 14.647 32.649 32.65v49.177zm86.137-77.559c-19.869 19.893-44.312 34.382-71.137 42.298v-13.917c0-3.438-.375-6.788-1.069-10.021 20.935-7.104 40.126-19.007 55.862-34.742 6.806-6.807 12.889-14.22 18.128-22.081h27.016c-7.661 14.074-17.312 26.975-28.8 38.463z"/></symbol></svg>